<svg width="22" height="22" viewBox="0 0 22 22" fill="none" xmlns="http://www.w3.org/2000/svg">
<mask id="mask0_1872_4880" style="mask-type:alpha" maskUnits="userSpaceOnUse" x="0" y="0" width="22" height="22">
<circle cx="10.7429" cy="10.7502" r="10.7429" fill="white"/>
</mask>
<g mask="url(#mask0_1872_4880)">
<path d="M6.17596 4.63147C3.62228 4.63147 1.55212 2.56131 1.55212 0.0076309C1.55212 -2.54605 3.62228 -4.61621 6.17596 -4.61621C8.72964 -4.61621 10.7998 -2.54605 10.7998 0.0076313C10.7998 2.56131 8.72964 4.63147 6.17596 4.63147Z" fill="#FC5FD0"/>
<path fill-rule="evenodd" clip-rule="evenodd" d="M19.5135 22.2974C19.5133 19.7438 17.4434 17.6738 14.89 17.6738C12.3367 17.6738 10.2668 19.7438 10.2666 22.2974L19.5135 22.2974Z" fill="#A257FF"/>
<path d="M9.90191 14.9844C9.90191 20.0917 5.76162 24.232 0.654323 24.232C-4.45298 24.232 -8.59326 20.0917 -8.59326 14.9844C-8.59326 9.8771 -4.45298 5.73682 0.654323 5.73682C5.76162 5.73682 9.90191 9.8771 9.90191 14.9844Z" fill="#FFC759"/>
<path d="M11.4565 7.10642C11.4565 1.99912 15.5968 -2.14117 20.7041 -2.14117C25.8114 -2.14117 29.9517 1.99912 29.9517 7.10642C29.9517 12.2137 25.8114 16.354 20.7041 16.354C15.5968 16.354 11.4565 12.2137 11.4565 7.10642Z" fill="#23EDF9"/>
</g>
</svg>
