<svg width="65" height="24" viewBox="0 0 65 24" fill="none" xmlns="http://www.w3.org/2000/svg">
<path d="M56.8398 18.4358L51.8687 6.26172H55.9699L59.1265 15.9162H57.6103L60.8416 6.26172H64.9428L59.7728 18.4358H56.8398ZM53.7328 23.5L57.3618 15.6418L59.7728 18.4358L57.6352 23.5H53.7328Z" fill="#302F61"/>
<path d="M44.0946 18.3859V5.2139C44.0946 4.23266 44.31 3.3512 44.7409 2.56953C45.1883 1.77123 45.8097 1.14756 46.6051 0.698513C47.4005 0.232838 48.345 0 49.4386 0C50.2672 0 50.988 0.141366 51.6011 0.424098C52.2308 0.690198 52.7776 1.0644 53.2416 1.54671L50.8554 3.94161C50.6897 3.7753 50.4991 3.65056 50.2837 3.56741C50.0849 3.46762 49.8446 3.41773 49.5629 3.41773C49.0492 3.41773 48.6432 3.56741 48.345 3.86677C48.0467 4.16613 47.8976 4.5736 47.8976 5.08917V18.3859H44.0946ZM41.4351 9.50477V6.26167H51.3774V9.50477H41.4351Z" fill="#302F61"/>
<path d="M32.9167 18.6353C31.7733 18.6353 30.7543 18.3609 29.8594 17.8121C28.9812 17.2633 28.2852 16.5148 27.7716 15.5669C27.2744 14.6189 27.0259 13.5378 27.0259 12.3238C27.0259 11.1097 27.2744 10.0287 27.7716 9.08067C28.2852 8.13269 28.9812 7.38428 29.8594 6.83545C30.7543 6.28662 31.7733 6.0122 32.9167 6.0122C33.7452 6.0122 34.4909 6.1702 35.1537 6.48619C35.8331 6.80219 36.3882 7.24291 36.8191 7.80838C37.2665 8.35721 37.515 8.9892 37.5647 9.70434V14.8185C37.515 15.5336 37.2748 16.1822 36.8439 16.7643C36.4131 17.3298 35.858 17.7871 35.1786 18.1364C34.4992 18.469 33.7452 18.6353 32.9167 18.6353ZM33.5878 15.1927C34.1346 15.1927 34.6069 15.0762 35.0046 14.8434C35.4023 14.5939 35.7171 14.253 35.9491 13.8206C36.1811 13.3882 36.2971 12.8892 36.2971 12.3238C36.2971 11.7583 36.1811 11.2677 35.9491 10.8519C35.7337 10.4195 35.4189 10.0785 35.0046 9.82908C34.6069 9.57961 34.1429 9.45487 33.6127 9.45487C33.0824 9.45487 32.6102 9.57961 32.1959 9.82908C31.7982 10.0785 31.4751 10.4195 31.2265 10.8519C30.9945 11.2843 30.8785 11.7749 30.8785 12.3238C30.8785 12.8726 30.9945 13.3632 31.2265 13.7956C31.4585 14.228 31.7816 14.569 32.1959 14.8185C32.6102 15.0679 33.0741 15.1927 33.5878 15.1927ZM39.8763 18.3859H36.148V15.1178L36.7196 12.1741L36.0734 9.23035V0.274414H39.8763V18.3859Z" fill="#302F61"/>
<path d="M18.0351 18.6353C16.9248 18.6353 15.9306 18.3609 15.0524 17.8121C14.1907 17.2633 13.503 16.5149 12.9893 15.5669C12.4922 14.6189 12.2437 13.5379 12.2437 12.3238C12.2437 11.1097 12.4922 10.0287 12.9893 9.08068C13.503 8.13269 14.1907 7.38429 15.0524 6.83545C15.9306 6.28662 16.9248 6.01221 18.0351 6.01221C18.847 6.01221 19.5761 6.1702 20.2224 6.4862C20.8852 6.80219 21.4237 7.24292 21.838 7.80838C22.2523 8.35722 22.4842 8.9892 22.534 9.70435V14.9432C22.4842 15.6583 22.2523 16.2986 21.838 16.8641C21.4403 17.4129 20.91 17.8454 20.2472 18.1613C19.5844 18.4773 18.847 18.6353 18.0351 18.6353ZM18.8056 15.1927C19.6175 15.1927 20.2721 14.9266 20.7692 14.3944C21.2663 13.8455 21.5149 13.1553 21.5149 12.3238C21.5149 11.7583 21.3989 11.2594 21.1669 10.827C20.9515 10.3945 20.6366 10.0619 20.2224 9.82908C19.8247 9.57961 19.3607 9.45488 18.8304 9.45488C18.3002 9.45488 17.8279 9.57961 17.4137 9.82908C17.016 10.0619 16.6928 10.3945 16.4443 10.827C16.2123 11.2594 16.0963 11.7583 16.0963 12.3238C16.0963 12.8726 16.2123 13.3632 16.4443 13.7956C16.6763 14.2281 16.9994 14.569 17.4137 14.8185C17.8279 15.0679 18.2919 15.1927 18.8056 15.1927ZM21.3657 23.5V15.2675L21.9374 12.3238L21.3657 9.38004V6.26168H25.0941V23.5H21.3657Z" fill="#302F61"/>
<path d="M6.00383 18.6854C5.2913 18.6854 4.58705 18.5939 3.89109 18.411C3.21169 18.2281 2.57373 17.9703 1.97719 17.6376C1.39722 17.2884 0.900104 16.8892 0.48584 16.4402L2.6483 14.2449C3.04599 14.6773 3.51825 15.0182 4.06508 15.2677C4.61191 15.5005 5.20845 15.6169 5.8547 15.6169C6.3021 15.6169 6.6418 15.5504 6.87379 15.4174C7.12234 15.2843 7.24662 15.1014 7.24662 14.8685C7.24662 14.5692 7.09749 14.3447 6.79922 14.195C6.51752 14.0287 6.15297 13.8873 5.70556 13.7709C5.25816 13.6378 4.7859 13.4965 4.28878 13.3468C3.79166 13.1971 3.3194 12.9892 2.872 12.7231C2.42459 12.457 2.06004 12.0911 1.77834 11.6254C1.49664 11.1431 1.35579 10.5361 1.35579 9.80431C1.35579 9.02264 1.55464 8.34908 1.95233 7.78361C2.35003 7.20152 2.91343 6.74416 3.64253 6.41154C4.37163 6.07891 5.22502 5.9126 6.20268 5.9126C7.23005 5.9126 8.17457 6.09554 9.03624 6.46143C9.91448 6.81069 10.627 7.33457 11.1738 8.03308L9.01139 10.2284C8.63027 9.77937 8.19943 9.46337 7.71888 9.28043C7.25491 9.09749 6.79922 9.00601 6.35181 9.00601C5.92098 9.00601 5.59785 9.07254 5.38244 9.20559C5.16702 9.32201 5.05931 9.49664 5.05931 9.72947C5.05931 9.97894 5.20016 10.1785 5.48186 10.3282C5.76356 10.4779 6.12811 10.6109 6.57552 10.7273C7.02292 10.8438 7.49518 10.9851 7.9923 11.1514C8.48942 11.3178 8.96168 11.5423 9.40908 11.825C9.85649 12.1077 10.221 12.4903 10.5027 12.9726C10.7844 13.4382 10.9253 14.0536 10.9253 14.8186C10.9253 15.9995 10.4779 16.9391 9.58307 17.6376C8.70483 18.3362 7.51175 18.6854 6.00383 18.6854Z" fill="#302F61"/>
</svg>
